<?xml version="1.0" encoding="UTF-8" standalone="no"?>
<!DOCTYPE svg PUBLIC "-//W3C//DTD SVG 1.1//EN"
 "http://www.w3.org/Graphics/SVG/1.1/DTD/svg11.dtd">
<!-- Generated by graphviz version 2.47.0 (20210316.0004)
 -->
<!-- Title: dbml Pages: 1 -->
<svg width="1144pt" height="3595pt"
 viewBox="0.00 0.00 1144.26 3595.07" xmlns="http://www.w3.org/2000/svg" xmlns:xlink="http://www.w3.org/1999/xlink">
<g id="graph0" class="graph" transform="scale(1 1) rotate(0) translate(4 3591.07)">
<title>dbml</title>
<!-- City -->
<g id="City" class="node">
<title>City</title>
<ellipse fill="none" stroke="black" stroke-width="0" cx="293.45" cy="-1878.53" rx="235.43" ry="172.57"/>
<polygon fill="#1d71b8" stroke="transparent" points="129.45,-1938.53 129.45,-1998.53 458.45,-1998.53 458.45,-1938.53 129.45,-1938.53"/>
<polygon fill="none" stroke="#29235c" points="129.45,-1938.53 129.45,-1998.53 458.45,-1998.53 458.45,-1938.53 129.45,-1938.53"/>
<text text-anchor="start" x="204.15" y="-1959.73" font-family="Helvetica,sans-Serif" font-weight="bold" font-size="32.00" fill="#ffffff"> &#160;&#160;&#160;&#160;&#160;&#160;City &#160;&#160;&#160;&#160;&#160;&#160;</text>
<polygon fill="#e7e2dd" stroke="transparent" points="129.45,-1878.53 129.45,-1938.53 458.45,-1938.53 458.45,-1878.53 129.45,-1878.53"/>
<polygon fill="none" stroke="#29235c" points="129.45,-1878.53 129.45,-1938.53 458.45,-1938.53 458.45,-1878.53 129.45,-1878.53"/>
<text text-anchor="start" x="140.45" y="-1899.73" font-family="Helvetica,sans-Serif" font-weight="bold" font-size="32.00" fill="#29235c">id</text>
<text text-anchor="start" x="165.34" y="-1899.73" font-family="Helvetica,sans-Serif" font-size="32.00" fill="#29235c"> &#160;&#160;&#160;</text>
<text text-anchor="start" x="305.23" y="-1899.73" font-family="Helvetica,sans-Serif" font-style="italic" font-size="32.00" fill="#29235c">INTEGER</text>
<polygon fill="#e7e2dd" stroke="transparent" points="129.45,-1818.53 129.45,-1878.53 458.45,-1878.53 458.45,-1818.53 129.45,-1818.53"/>
<polygon fill="none" stroke="#29235c" points="129.45,-1818.53 129.45,-1878.53 458.45,-1878.53 458.45,-1818.53 129.45,-1818.53"/>
<text text-anchor="start" x="140.26" y="-1838.73" font-family="Helvetica,sans-Serif" font-size="32.00" fill="#29235c">player_id &#160;&#160;&#160;</text>
<text text-anchor="start" x="305.34" y="-1839.73" font-family="Helvetica,sans-Serif" font-style="italic" font-size="32.00" fill="#29235c">INTEGER</text>
<polygon fill="#e7e2dd" stroke="transparent" points="129.45,-1758.53 129.45,-1818.53 458.45,-1818.53 458.45,-1758.53 129.45,-1758.53"/>
<polygon fill="none" stroke="#29235c" points="129.45,-1758.53 129.45,-1818.53 458.45,-1818.53 458.45,-1758.53 129.45,-1758.53"/>
<text text-anchor="start" x="140.45" y="-1778.73" font-family="Helvetica,sans-Serif" font-size="32.00" fill="#29235c">location &#160;&#160;&#160;</text>
<text text-anchor="start" x="291.02" y="-1779.73" font-family="Helvetica,sans-Serif" font-style="italic" font-size="32.00" fill="#29235c">VARCHAR</text>
<polygon fill="none" stroke="#29235c" stroke-width="2" points="127.95,-1757.53 127.95,-1999.53 458.95,-1999.53 458.95,-1757.53 127.95,-1757.53"/>
</g>
<!-- Player -->
<g id="Player" class="node">
<title>Player</title>
<ellipse fill="none" stroke="black" stroke-width="0" cx="879.58" cy="-1666.53" rx="210.02" ry="172.57"/>
<polygon fill="#1d71b8" stroke="transparent" points="733.58,-1726.53 733.58,-1786.53 1026.58,-1786.53 1026.58,-1726.53 733.58,-1726.53"/>
<polygon fill="none" stroke="#29235c" points="733.58,-1726.53 733.58,-1786.53 1026.58,-1786.53 1026.58,-1726.53 733.58,-1726.53"/>
<text text-anchor="start" x="772.49" y="-1747.73" font-family="Helvetica,sans-Serif" font-weight="bold" font-size="32.00" fill="#ffffff"> &#160;&#160;&#160;&#160;&#160;&#160;Player &#160;&#160;&#160;&#160;&#160;&#160;</text>
<polygon fill="#e7e2dd" stroke="transparent" points="733.58,-1666.53 733.58,-1726.53 1026.58,-1726.53 1026.58,-1666.53 733.58,-1666.53"/>
<polygon fill="none" stroke="#29235c" points="733.58,-1666.53 733.58,-1726.53 1026.58,-1726.53 1026.58,-1666.53 733.58,-1666.53"/>
<text text-anchor="start" x="744.58" y="-1687.73" font-family="Helvetica,sans-Serif" font-weight="bold" font-size="32.00" fill="#29235c">id</text>
<text text-anchor="start" x="769.47" y="-1687.73" font-family="Helvetica,sans-Serif" font-size="32.00" fill="#29235c"> &#160;&#160;&#160;</text>
<text text-anchor="start" x="873.36" y="-1687.73" font-family="Helvetica,sans-Serif" font-style="italic" font-size="32.00" fill="#29235c">INTEGER</text>
<polygon fill="#e7e2dd" stroke="transparent" points="733.58,-1606.53 733.58,-1666.53 1026.58,-1666.53 1026.58,-1606.53 733.58,-1606.53"/>
<polygon fill="none" stroke="#29235c" points="733.58,-1606.53 733.58,-1666.53 1026.58,-1666.53 1026.58,-1606.53 733.58,-1606.53"/>
<text text-anchor="start" x="744.28" y="-1626.73" font-family="Helvetica,sans-Serif" font-size="32.00" fill="#29235c">name &#160;&#160;&#160;</text>
<text text-anchor="start" x="859.37" y="-1627.73" font-family="Helvetica,sans-Serif" font-style="italic" font-size="32.00" fill="#29235c">VARCHAR</text>
<polygon fill="#e7e2dd" stroke="transparent" points="733.58,-1546.53 733.58,-1606.53 1026.58,-1606.53 1026.58,-1546.53 733.58,-1546.53"/>
<polygon fill="none" stroke="#29235c" points="733.58,-1546.53 733.58,-1606.53 1026.58,-1606.53 1026.58,-1546.53 733.58,-1546.53"/>
<text text-anchor="start" x="744.58" y="-1566.73" font-family="Helvetica,sans-Serif" font-size="32.00" fill="#29235c">color &#160;&#160;&#160;</text>
<text text-anchor="start" x="859.15" y="-1567.73" font-family="Helvetica,sans-Serif" font-style="italic" font-size="32.00" fill="#29235c">VARCHAR</text>
<polygon fill="none" stroke="#29235c" stroke-width="2" points="732.08,-1545.53 732.08,-1787.53 1027.08,-1787.53 1027.08,-1545.53 732.08,-1545.53"/>
</g>
<!-- City&#45;&gt;Player -->
<!-- City&#45;&gt;Player -->
<g id="edge2" class="edge">
<title>City:e&#45;&gt;Player:w</title>
<path fill="none" stroke="#29235c" stroke-width="3" d="M459.45,-1848.53C594.84,-1848.53 593.8,-1704.15 722.27,-1696.82"/>
<polygon fill="#29235c" stroke="#29235c" stroke-width="3" points="722.68,-1700.31 732.58,-1696.53 722.48,-1693.32 722.68,-1700.31"/>
<text text-anchor="middle" x="738.8" y="-1667.73" font-family="Helvetica,sans-Serif" font-size="32.00" fill="#29235c">*</text>
<text text-anchor="middle" x="468.34" y="-1858.13" font-family="Helvetica,sans-Serif" font-size="32.00" fill="#29235c">1</text>
</g>
<!-- DevelopmentCard -->
<g id="DevelopmentCard" class="node">
<title>DevelopmentCard</title>
<ellipse fill="none" stroke="black" stroke-width="0" cx="293.45" cy="-1515.53" rx="288.5" ry="172.57"/>
<polygon fill="#1d71b8" stroke="transparent" points="91.45,-1575.53 91.45,-1635.53 495.45,-1635.53 495.45,-1575.53 91.45,-1575.53"/>
<polygon fill="none" stroke="#29235c" points="91.45,-1575.53 91.45,-1635.53 495.45,-1635.53 495.45,-1575.53 91.45,-1575.53"/>
<text text-anchor="start" x="102.29" y="-1596.73" font-family="Helvetica,sans-Serif" font-weight="bold" font-size="32.00" fill="#ffffff"> &#160;&#160;&#160;&#160;&#160;&#160;DevelopmentCard &#160;&#160;&#160;&#160;&#160;&#160;</text>
<polygon fill="#e7e2dd" stroke="transparent" points="91.45,-1515.53 91.45,-1575.53 495.45,-1575.53 495.45,-1515.53 91.45,-1515.53"/>
<polygon fill="none" stroke="#29235c" points="91.45,-1515.53 91.45,-1575.53 495.45,-1575.53 495.45,-1515.53 91.45,-1515.53"/>
<text text-anchor="start" x="102.45" y="-1536.73" font-family="Helvetica,sans-Serif" font-weight="bold" font-size="32.00" fill="#29235c">id</text>
<text text-anchor="start" x="127.34" y="-1536.73" font-family="Helvetica,sans-Serif" font-size="32.00" fill="#29235c"> &#160;&#160;&#160;</text>
<text text-anchor="start" x="342.23" y="-1536.73" font-family="Helvetica,sans-Serif" font-style="italic" font-size="32.00" fill="#29235c">INTEGER</text>
<polygon fill="#e7e2dd" stroke="transparent" points="91.45,-1455.53 91.45,-1515.53 495.45,-1515.53 495.45,-1455.53 91.45,-1455.53"/>
<polygon fill="none" stroke="#29235c" points="91.45,-1455.53 91.45,-1515.53 495.45,-1515.53 495.45,-1455.53 91.45,-1455.53"/>
<text text-anchor="start" x="102.45" y="-1475.73" font-family="Helvetica,sans-Serif" font-size="32.00" fill="#29235c">player_id &#160;&#160;&#160;</text>
<text text-anchor="start" x="342.23" y="-1476.73" font-family="Helvetica,sans-Serif" font-style="italic" font-size="32.00" fill="#29235c">INTEGER</text>
<polygon fill="#e7e2dd" stroke="transparent" points="91.45,-1395.53 91.45,-1455.53 495.45,-1455.53 495.45,-1395.53 91.45,-1395.53"/>
<polygon fill="none" stroke="#29235c" points="91.45,-1395.53 91.45,-1455.53 495.45,-1455.53 495.45,-1395.53 91.45,-1395.53"/>
<text text-anchor="start" x="102.45" y="-1415.73" font-family="Helvetica,sans-Serif" font-size="32.00" fill="#29235c">Type &#160;&#160;&#160;</text>
<text text-anchor="start" x="328.02" y="-1416.73" font-family="Helvetica,sans-Serif" font-style="italic" font-size="32.00" fill="#29235c">VARCHAR</text>
<polygon fill="none" stroke="#29235c" stroke-width="2" points="90.45,-1394.53 90.45,-1636.53 496.45,-1636.53 496.45,-1394.53 90.45,-1394.53"/>
</g>
<!-- DevelopmentCard&#45;&gt;Player -->
<!-- DevelopmentCard&#45;&gt;Player -->
<g id="edge4" class="edge">
<title>DevelopmentCard:e&#45;&gt;Player:w</title>
<path fill="none" stroke="#29235c" stroke-width="3" d="M496.45,-1485.53C633.62,-1485.53 594.02,-1685.96 722.21,-1696.13"/>
<polygon fill="#29235c" stroke="#29235c" stroke-width="3" points="722.45,-1699.64 732.58,-1696.53 722.72,-1692.65 722.45,-1699.64"/>
<text text-anchor="middle" x="738.8" y="-1706.13" font-family="Helvetica,sans-Serif" font-size="32.00" fill="#29235c">*</text>
<text text-anchor="middle" x="505.34" y="-1456.73" font-family="Helvetica,sans-Serif" font-size="32.00" fill="#29235c">1</text>
</g>
<!-- DiceRoll -->
<g id="DiceRoll" class="node">
<title>DiceRoll</title>
<ellipse fill="none" stroke="black" stroke-width="0" cx="293.45" cy="-3414.53" rx="263.09" ry="172.57"/>
<polygon fill="#1d71b8" stroke="transparent" points="109.45,-3474.53 109.45,-3534.53 477.45,-3534.53 477.45,-3474.53 109.45,-3474.53"/>
<polygon fill="none" stroke="#29235c" points="109.45,-3474.53 109.45,-3534.53 477.45,-3534.53 477.45,-3474.53 109.45,-3474.53"/>
<text text-anchor="start" x="171.66" y="-3495.73" font-family="Helvetica,sans-Serif" font-weight="bold" font-size="32.00" fill="#ffffff"> &#160;&#160;&#160;&#160;&#160;&#160;DiceRoll &#160;&#160;&#160;&#160;&#160;&#160;</text>
<polygon fill="#e7e2dd" stroke="transparent" points="109.45,-3414.53 109.45,-3474.53 477.45,-3474.53 477.45,-3414.53 109.45,-3414.53"/>
<polygon fill="none" stroke="#29235c" points="109.45,-3414.53 109.45,-3474.53 477.45,-3474.53 477.45,-3414.53 109.45,-3414.53"/>
<text text-anchor="start" x="120.45" y="-3435.73" font-family="Helvetica,sans-Serif" font-weight="bold" font-size="32.00" fill="#29235c">id</text>
<text text-anchor="start" x="145.34" y="-3435.73" font-family="Helvetica,sans-Serif" font-size="32.00" fill="#29235c"> &#160;&#160;&#160;</text>
<text text-anchor="start" x="324.23" y="-3435.73" font-family="Helvetica,sans-Serif" font-style="italic" font-size="32.00" fill="#29235c">INTEGER</text>
<polygon fill="#e7e2dd" stroke="transparent" points="109.45,-3354.53 109.45,-3414.53 477.45,-3414.53 477.45,-3354.53 109.45,-3354.53"/>
<polygon fill="none" stroke="#29235c" points="109.45,-3354.53 109.45,-3414.53 477.45,-3414.53 477.45,-3354.53 109.45,-3354.53"/>
<text text-anchor="start" x="120.22" y="-3374.73" font-family="Helvetica,sans-Serif" font-size="32.00" fill="#29235c">roll_number &#160;&#160;&#160;</text>
<text text-anchor="start" x="324.34" y="-3375.73" font-family="Helvetica,sans-Serif" font-style="italic" font-size="32.00" fill="#29235c">INTEGER</text>
<polygon fill="#e7e2dd" stroke="transparent" points="109.45,-3294.53 109.45,-3354.53 477.45,-3354.53 477.45,-3294.53 109.45,-3294.53"/>
<polygon fill="none" stroke="#29235c" points="109.45,-3294.53 109.45,-3354.53 477.45,-3354.53 477.45,-3294.53 109.45,-3294.53"/>
<text text-anchor="start" x="120.45" y="-3314.73" font-family="Helvetica,sans-Serif" font-size="32.00" fill="#29235c">date_time &#160;&#160;&#160;</text>
<text text-anchor="start" x="304.68" y="-3315.73" font-family="Helvetica,sans-Serif" font-style="italic" font-size="32.00" fill="#29235c">DATETIME</text>
<polygon fill="none" stroke="#29235c" stroke-width="2" points="108.45,-3293.53 108.45,-3535.53 478.45,-3535.53 478.45,-3293.53 108.45,-3293.53"/>
</g>
<!-- Game -->
<g id="Game" class="node">
<title>Game</title>
<ellipse fill="none" stroke="black" stroke-width="0" cx="879.58" cy="-3081.53" rx="256.86" ry="130.22"/>
<polygon fill="#1d71b8" stroke="transparent" points="700.58,-3111.53 700.58,-3171.53 1059.58,-3171.53 1059.58,-3111.53 700.58,-3111.53"/>
<polygon fill="none" stroke="#29235c" points="700.58,-3111.53 700.58,-3171.53 1059.58,-3171.53 1059.58,-3111.53 700.58,-3111.53"/>
<text text-anchor="start" x="774.27" y="-3132.73" font-family="Helvetica,sans-Serif" font-weight="bold" font-size="32.00" fill="#ffffff"> &#160;&#160;&#160;&#160;&#160;&#160;Game &#160;&#160;&#160;&#160;&#160;&#160;</text>
<polygon fill="#e7e2dd" stroke="transparent" points="700.58,-3051.53 700.58,-3111.53 1059.58,-3111.53 1059.58,-3051.53 700.58,-3051.53"/>
<polygon fill="none" stroke="#29235c" points="700.58,-3051.53 700.58,-3111.53 1059.58,-3111.53 1059.58,-3051.53 700.58,-3051.53"/>
<text text-anchor="start" x="711.58" y="-3072.73" font-family="Helvetica,sans-Serif" font-weight="bold" font-size="32.00" fill="#29235c">id</text>
<text text-anchor="start" x="736.47" y="-3072.73" font-family="Helvetica,sans-Serif" font-size="32.00" fill="#29235c"> &#160;&#160;&#160;</text>
<text text-anchor="start" x="906.36" y="-3072.73" font-family="Helvetica,sans-Serif" font-style="italic" font-size="32.00" fill="#29235c">INTEGER</text>
<polygon fill="#e7e2dd" stroke="transparent" points="700.58,-2991.53 700.58,-3051.53 1059.58,-3051.53 1059.58,-2991.53 700.58,-2991.53"/>
<polygon fill="none" stroke="#29235c" points="700.58,-2991.53 700.58,-3051.53 1059.58,-3051.53 1059.58,-2991.53 700.58,-2991.53"/>
<text text-anchor="start" x="711.55" y="-3011.73" font-family="Helvetica,sans-Serif" font-size="32.00" fill="#29235c">date_time &#160;&#160;&#160;</text>
<text text-anchor="start" x="887.2" y="-3012.73" font-family="Helvetica,sans-Serif" font-style="italic" font-size="32.00" fill="#29235c">DATETIME</text>
<polygon fill="none" stroke="#29235c" stroke-width="2" points="699.08,-2990.53 699.08,-3172.53 1060.08,-3172.53 1060.08,-2990.53 699.08,-2990.53"/>
</g>
<!-- GamePlayer -->
<g id="GamePlayer" class="node">
<title>GamePlayer</title>
<ellipse fill="none" stroke="black" stroke-width="0" cx="293.45" cy="-3051.53" rx="235.43" ry="172.57"/>
<polygon fill="#1d71b8" stroke="transparent" points="129.45,-3111.53 129.45,-3171.53 458.45,-3171.53 458.45,-3111.53 129.45,-3111.53"/>
<polygon fill="none" stroke="#29235c" points="129.45,-3111.53 129.45,-3171.53 458.45,-3171.53 458.45,-3111.53 129.45,-3111.53"/>
<text text-anchor="start" x="142.8" y="-3132.73" font-family="Helvetica,sans-Serif" font-weight="bold" font-size="32.00" fill="#ffffff"> &#160;&#160;&#160;&#160;&#160;&#160;GamePlayer &#160;&#160;&#160;&#160;&#160;&#160;</text>
<polygon fill="#e7e2dd" stroke="transparent" points="129.45,-3051.53 129.45,-3111.53 458.45,-3111.53 458.45,-3051.53 129.45,-3051.53"/>
<polygon fill="none" stroke="#29235c" points="129.45,-3051.53 129.45,-3111.53 458.45,-3111.53 458.45,-3051.53 129.45,-3051.53"/>
<text text-anchor="start" x="140.45" y="-3072.73" font-family="Helvetica,sans-Serif" font-weight="bold" font-size="32.00" fill="#29235c">id</text>
<text text-anchor="start" x="165.34" y="-3072.73" font-family="Helvetica,sans-Serif" font-size="32.00" fill="#29235c"> &#160;&#160;&#160;</text>
<text text-anchor="start" x="305.23" y="-3072.73" font-family="Helvetica,sans-Serif" font-style="italic" font-size="32.00" fill="#29235c">INTEGER</text>
<polygon fill="#e7e2dd" stroke="transparent" points="129.45,-2991.53 129.45,-3051.53 458.45,-3051.53 458.45,-2991.53 129.45,-2991.53"/>
<polygon fill="none" stroke="#29235c" points="129.45,-2991.53 129.45,-3051.53 458.45,-3051.53 458.45,-2991.53 129.45,-2991.53"/>
<text text-anchor="start" x="140.45" y="-3011.73" font-family="Helvetica,sans-Serif" font-size="32.00" fill="#29235c">game_id &#160;&#160;&#160;</text>
<text text-anchor="start" x="305.23" y="-3012.73" font-family="Helvetica,sans-Serif" font-style="italic" font-size="32.00" fill="#29235c">INTEGER</text>
<polygon fill="#e7e2dd" stroke="transparent" points="129.45,-2931.53 129.45,-2991.53 458.45,-2991.53 458.45,-2931.53 129.45,-2931.53"/>
<polygon fill="none" stroke="#29235c" points="129.45,-2931.53 129.45,-2991.53 458.45,-2991.53 458.45,-2931.53 129.45,-2931.53"/>
<text text-anchor="start" x="140.26" y="-2951.73" font-family="Helvetica,sans-Serif" font-size="32.00" fill="#29235c">player_id &#160;&#160;&#160;</text>
<text text-anchor="start" x="305.34" y="-2952.73" font-family="Helvetica,sans-Serif" font-style="italic" font-size="32.00" fill="#29235c">INTEGER</text>
<polygon fill="none" stroke="#29235c" stroke-width="2" points="127.95,-2930.53 127.95,-3172.53 458.95,-3172.53 458.95,-2930.53 127.95,-2930.53"/>
</g>
<!-- GamePlayer&#45;&gt;Player -->
<!-- GamePlayer&#45;&gt;Player -->
<g id="edge8" class="edge">
<title>GamePlayer:e&#45;&gt;Player:w</title>
<path fill="none" stroke="#29235c" stroke-width="3" d="M459.45,-2961.53C529.05,-2961.53 551.29,-2930.34 586.9,-2870.53 719.63,-2647.64 476.26,-1721.41 722.45,-1697.02"/>
<polygon fill="#29235c" stroke="#29235c" stroke-width="3" points="722.76,-1700.51 732.58,-1696.53 722.42,-1693.52 722.76,-1700.51"/>
<text text-anchor="middle" x="726.36" y="-1667.73" font-family="Helvetica,sans-Serif" font-size="32.00" fill="#29235c">*</text>
<text text-anchor="middle" x="468.34" y="-2971.13" font-family="Helvetica,sans-Serif" font-size="32.00" fill="#29235c">1</text>
</g>
<!-- GamePlayer&#45;&gt;Game -->
<!-- GamePlayer&#45;&gt;Game -->
<g id="edge6" class="edge">
<title>GamePlayer:e&#45;&gt;Game:w</title>
<path fill="none" stroke="#29235c" stroke-width="3" d="M459.45,-3021.53C566.02,-3021.53 588.23,-3077.84 689.52,-3081.36"/>
<polygon fill="#29235c" stroke="#29235c" stroke-width="3" points="689.52,-3084.86 699.58,-3081.53 689.64,-3077.86 689.52,-3084.86"/>
<text text-anchor="middle" x="705.8" y="-3091.13" font-family="Helvetica,sans-Serif" font-size="32.00" fill="#29235c">*</text>
<text text-anchor="middle" x="468.34" y="-3031.13" font-family="Helvetica,sans-Serif" font-size="32.00" fill="#29235c">1</text>
</g>
<!-- PlayerResource -->
<g id="PlayerResource" class="node">
<title>PlayerResource</title>
<ellipse fill="none" stroke="black" stroke-width="0" cx="293.45" cy="-577.53" rx="267.07" ry="214.92"/>
<polygon fill="#1d71b8" stroke="transparent" points="106.45,-667.53 106.45,-727.53 480.45,-727.53 480.45,-667.53 106.45,-667.53"/>
<polygon fill="none" stroke="#29235c" points="106.45,-667.53 106.45,-727.53 480.45,-727.53 480.45,-667.53 106.45,-667.53"/>
<text text-anchor="start" x="117.41" y="-688.73" font-family="Helvetica,sans-Serif" font-weight="bold" font-size="32.00" fill="#ffffff"> &#160;&#160;&#160;&#160;&#160;&#160;PlayerResource &#160;&#160;&#160;&#160;&#160;&#160;</text>
<polygon fill="#e7e2dd" stroke="transparent" points="106.45,-607.53 106.45,-667.53 480.45,-667.53 480.45,-607.53 106.45,-607.53"/>
<polygon fill="none" stroke="#29235c" points="106.45,-607.53 106.45,-667.53 480.45,-667.53 480.45,-607.53 106.45,-607.53"/>
<text text-anchor="start" x="117.45" y="-628.73" font-family="Helvetica,sans-Serif" font-weight="bold" font-size="32.00" fill="#29235c">id</text>
<text text-anchor="start" x="142.34" y="-628.73" font-family="Helvetica,sans-Serif" font-size="32.00" fill="#29235c"> &#160;&#160;&#160;</text>
<text text-anchor="start" x="327.23" y="-628.73" font-family="Helvetica,sans-Serif" font-style="italic" font-size="32.00" fill="#29235c">INTEGER</text>
<polygon fill="#e7e2dd" stroke="transparent" points="106.45,-547.53 106.45,-607.53 480.45,-607.53 480.45,-547.53 106.45,-547.53"/>
<polygon fill="none" stroke="#29235c" points="106.45,-547.53 106.45,-607.53 480.45,-607.53 480.45,-547.53 106.45,-547.53"/>
<text text-anchor="start" x="117.45" y="-567.73" font-family="Helvetica,sans-Serif" font-size="32.00" fill="#29235c">player_id &#160;&#160;&#160;</text>
<text text-anchor="start" x="327.23" y="-568.73" font-family="Helvetica,sans-Serif" font-style="italic" font-size="32.00" fill="#29235c">INTEGER</text>
<polygon fill="#e7e2dd" stroke="transparent" points="106.45,-487.53 106.45,-547.53 480.45,-547.53 480.45,-487.53 106.45,-487.53"/>
<polygon fill="none" stroke="#29235c" points="106.45,-487.53 106.45,-547.53 480.45,-547.53 480.45,-487.53 106.45,-487.53"/>
<text text-anchor="start" x="117.45" y="-507.73" font-family="Helvetica,sans-Serif" font-size="32.00" fill="#29235c">resource_id &#160;&#160;&#160;</text>
<text text-anchor="start" x="327.23" y="-508.73" font-family="Helvetica,sans-Serif" font-style="italic" font-size="32.00" fill="#29235c">INTEGER</text>
<polygon fill="#e7e2dd" stroke="transparent" points="106.45,-427.53 106.45,-487.53 480.45,-487.53 480.45,-427.53 106.45,-427.53"/>
<polygon fill="none" stroke="#29235c" points="106.45,-427.53 106.45,-487.53 480.45,-487.53 480.45,-427.53 106.45,-427.53"/>
<text text-anchor="start" x="117.45" y="-447.73" font-family="Helvetica,sans-Serif" font-size="32.00" fill="#29235c">amount &#160;&#160;&#160;</text>
<text text-anchor="start" x="327.23" y="-448.73" font-family="Helvetica,sans-Serif" font-style="italic" font-size="32.00" fill="#29235c">INTEGER</text>
<polygon fill="none" stroke="#29235c" stroke-width="2" points="105.45,-426.53 105.45,-728.53 481.45,-728.53 481.45,-426.53 105.45,-426.53"/>
</g>
<!-- PlayerResource&#45;&gt;Player -->
<!-- PlayerResource&#45;&gt;Player -->
<g id="edge10" class="edge">
<title>PlayerResource:e&#45;&gt;Player:w</title>
<path fill="none" stroke="#29235c" stroke-width="3" d="M481.45,-577.53C732.82,-577.53 484.7,-1666.15 722.41,-1695.91"/>
<polygon fill="#29235c" stroke="#29235c" stroke-width="3" points="722.38,-1699.42 732.58,-1696.53 722.81,-1692.43 722.38,-1699.42"/>
<text text-anchor="middle" x="726.36" y="-1706.13" font-family="Helvetica,sans-Serif" font-size="32.00" fill="#29235c">*</text>
<text text-anchor="middle" x="490.34" y="-548.73" font-family="Helvetica,sans-Serif" font-size="32.00" fill="#29235c">1</text>
</g>
<!-- Resource -->
<g id="Resource" class="node">
<title>Resource</title>
<ellipse fill="none" stroke="black" stroke-width="0" cx="879.58" cy="-637.53" rx="210.02" ry="130.22"/>
<polygon fill="#1d71b8" stroke="transparent" points="733.58,-667.53 733.58,-727.53 1026.58,-727.53 1026.58,-667.53 733.58,-667.53"/>
<polygon fill="none" stroke="#29235c" points="733.58,-667.53 733.58,-727.53 1026.58,-727.53 1026.58,-667.53 733.58,-667.53"/>
<text text-anchor="start" x="749.37" y="-688.73" font-family="Helvetica,sans-Serif" font-weight="bold" font-size="32.00" fill="#ffffff"> &#160;&#160;&#160;&#160;&#160;&#160;Resource &#160;&#160;&#160;&#160;&#160;&#160;</text>
<polygon fill="#e7e2dd" stroke="transparent" points="733.58,-607.53 733.58,-667.53 1026.58,-667.53 1026.58,-607.53 733.58,-607.53"/>
<polygon fill="none" stroke="#29235c" points="733.58,-607.53 733.58,-667.53 1026.58,-667.53 1026.58,-607.53 733.58,-607.53"/>
<text text-anchor="start" x="744.58" y="-628.73" font-family="Helvetica,sans-Serif" font-weight="bold" font-size="32.00" fill="#29235c">id</text>
<text text-anchor="start" x="769.47" y="-628.73" font-family="Helvetica,sans-Serif" font-size="32.00" fill="#29235c"> &#160;&#160;&#160;</text>
<text text-anchor="start" x="873.36" y="-628.73" font-family="Helvetica,sans-Serif" font-style="italic" font-size="32.00" fill="#29235c">INTEGER</text>
<polygon fill="#e7e2dd" stroke="transparent" points="733.58,-547.53 733.58,-607.53 1026.58,-607.53 1026.58,-547.53 733.58,-547.53"/>
<polygon fill="none" stroke="#29235c" points="733.58,-547.53 733.58,-607.53 1026.58,-607.53 1026.58,-547.53 733.58,-547.53"/>
<text text-anchor="start" x="744.28" y="-567.73" font-family="Helvetica,sans-Serif" font-size="32.00" fill="#29235c">name &#160;&#160;&#160;</text>
<text text-anchor="start" x="859.37" y="-568.73" font-family="Helvetica,sans-Serif" font-style="italic" font-size="32.00" fill="#29235c">VARCHAR</text>
<polygon fill="none" stroke="#29235c" stroke-width="2" points="732.08,-546.53 732.08,-728.53 1027.08,-728.53 1027.08,-546.53 732.08,-546.53"/>
</g>
<!-- PlayerResource&#45;&gt;Resource -->
<!-- PlayerResource&#45;&gt;Resource -->
<g id="edge12" class="edge">
<title>PlayerResource:e&#45;&gt;Resource:w</title>
<path fill="none" stroke="#29235c" stroke-width="3" d="M481.45,-517.53C601.65,-517.53 608.57,-630.83 722.35,-637.25"/>
<polygon fill="#29235c" stroke="#29235c" stroke-width="3" points="722.49,-640.76 732.58,-637.53 722.68,-633.76 722.49,-640.76"/>
<text text-anchor="middle" x="738.8" y="-608.73" font-family="Helvetica,sans-Serif" font-size="32.00" fill="#29235c">*</text>
<text text-anchor="middle" x="490.34" y="-488.73" font-family="Helvetica,sans-Serif" font-size="32.00" fill="#29235c">1</text>
</g>
<!-- Road -->
<g id="Road" class="node">
<title>Road</title>
<ellipse fill="none" stroke="black" stroke-width="0" cx="293.45" cy="-2646.53" rx="287.59" ry="214.92"/>
<polygon fill="#1d71b8" stroke="transparent" points="92.45,-2736.53 92.45,-2796.53 495.45,-2796.53 495.45,-2736.53 92.45,-2736.53"/>
<polygon fill="none" stroke="#29235c" points="92.45,-2736.53 92.45,-2796.53 495.45,-2796.53 495.45,-2736.53 92.45,-2736.53"/>
<text text-anchor="start" x="193.47" y="-2757.73" font-family="Helvetica,sans-Serif" font-weight="bold" font-size="32.00" fill="#ffffff"> &#160;&#160;&#160;&#160;&#160;&#160;Road &#160;&#160;&#160;&#160;&#160;&#160;</text>
<polygon fill="#e7e2dd" stroke="transparent" points="92.45,-2676.53 92.45,-2736.53 495.45,-2736.53 495.45,-2676.53 92.45,-2676.53"/>
<polygon fill="none" stroke="#29235c" points="92.45,-2676.53 92.45,-2736.53 495.45,-2736.53 495.45,-2676.53 92.45,-2676.53"/>
<text text-anchor="start" x="103.45" y="-2697.73" font-family="Helvetica,sans-Serif" font-weight="bold" font-size="32.00" fill="#29235c">id</text>
<text text-anchor="start" x="128.34" y="-2697.73" font-family="Helvetica,sans-Serif" font-size="32.00" fill="#29235c"> &#160;&#160;&#160;</text>
<text text-anchor="start" x="342.23" y="-2697.73" font-family="Helvetica,sans-Serif" font-style="italic" font-size="32.00" fill="#29235c">INTEGER</text>
<polygon fill="#e7e2dd" stroke="transparent" points="92.45,-2616.53 92.45,-2676.53 495.45,-2676.53 495.45,-2616.53 92.45,-2616.53"/>
<polygon fill="none" stroke="#29235c" points="92.45,-2616.53 92.45,-2676.53 495.45,-2676.53 495.45,-2616.53 92.45,-2616.53"/>
<text text-anchor="start" x="103.45" y="-2636.73" font-family="Helvetica,sans-Serif" font-size="32.00" fill="#29235c">player_id &#160;&#160;&#160;</text>
<text text-anchor="start" x="342.23" y="-2637.73" font-family="Helvetica,sans-Serif" font-style="italic" font-size="32.00" fill="#29235c">INTEGER</text>
<polygon fill="#e7e2dd" stroke="transparent" points="92.45,-2556.53 92.45,-2616.53 495.45,-2616.53 495.45,-2556.53 92.45,-2556.53"/>
<polygon fill="none" stroke="#29235c" points="92.45,-2556.53 92.45,-2616.53 495.45,-2616.53 495.45,-2556.53 92.45,-2556.53"/>
<text text-anchor="start" x="103.03" y="-2576.73" font-family="Helvetica,sans-Serif" font-size="32.00" fill="#29235c">start_location &#160;&#160;&#160;</text>
<text text-anchor="start" x="328.24" y="-2577.73" font-family="Helvetica,sans-Serif" font-style="italic" font-size="32.00" fill="#29235c">VARCHAR</text>
<polygon fill="#e7e2dd" stroke="transparent" points="92.45,-2496.53 92.45,-2556.53 495.45,-2556.53 495.45,-2496.53 92.45,-2496.53"/>
<polygon fill="none" stroke="#29235c" points="92.45,-2496.53 92.45,-2556.53 495.45,-2556.53 495.45,-2496.53 92.45,-2496.53"/>
<text text-anchor="start" x="103.45" y="-2516.73" font-family="Helvetica,sans-Serif" font-size="32.00" fill="#29235c">end_location &#160;&#160;&#160;</text>
<text text-anchor="start" x="328.02" y="-2517.73" font-family="Helvetica,sans-Serif" font-style="italic" font-size="32.00" fill="#29235c">VARCHAR</text>
<polygon fill="none" stroke="#29235c" stroke-width="2" points="90.95,-2495.53 90.95,-2797.53 495.95,-2797.53 495.95,-2495.53 90.95,-2495.53"/>
</g>
<!-- Road&#45;&gt;Player -->
<!-- Road&#45;&gt;Player -->
<g id="edge14" class="edge">
<title>Road:e&#45;&gt;Player:w</title>
<path fill="none" stroke="#29235c" stroke-width="3" d="M496.45,-2646.53C710.48,-2646.53 521.35,-1726.9 722.38,-1697.27"/>
<polygon fill="#29235c" stroke="#29235c" stroke-width="3" points="722.85,-1700.74 732.58,-1696.53 722.35,-1693.76 722.85,-1700.74"/>
<text text-anchor="middle" x="738.8" y="-1667.73" font-family="Helvetica,sans-Serif" font-size="32.00" fill="#29235c">*</text>
<text text-anchor="middle" x="505.34" y="-2656.13" font-family="Helvetica,sans-Serif" font-size="32.00" fill="#29235c">1</text>
</g>
<!-- Settlement -->
<g id="Settlement" class="node">
<title>Settlement</title>
<ellipse fill="none" stroke="black" stroke-width="0" cx="293.45" cy="-2241.53" rx="235.43" ry="172.57"/>
<polygon fill="#1d71b8" stroke="transparent" points="129.45,-2301.53 129.45,-2361.53 458.45,-2361.53 458.45,-2301.53 129.45,-2301.53"/>
<polygon fill="none" stroke="#29235c" points="129.45,-2301.53 129.45,-2361.53 458.45,-2361.53 458.45,-2301.53 129.45,-2301.53"/>
<text text-anchor="start" x="155.24" y="-2322.73" font-family="Helvetica,sans-Serif" font-weight="bold" font-size="32.00" fill="#ffffff"> &#160;&#160;&#160;&#160;&#160;&#160;Settlement &#160;&#160;&#160;&#160;&#160;&#160;</text>
<polygon fill="#e7e2dd" stroke="transparent" points="129.45,-2241.53 129.45,-2301.53 458.45,-2301.53 458.45,-2241.53 129.45,-2241.53"/>
<polygon fill="none" stroke="#29235c" points="129.45,-2241.53 129.45,-2301.53 458.45,-2301.53 458.45,-2241.53 129.45,-2241.53"/>
<text text-anchor="start" x="140.45" y="-2262.73" font-family="Helvetica,sans-Serif" font-weight="bold" font-size="32.00" fill="#29235c">id</text>
<text text-anchor="start" x="165.34" y="-2262.73" font-family="Helvetica,sans-Serif" font-size="32.00" fill="#29235c"> &#160;&#160;&#160;</text>
<text text-anchor="start" x="305.23" y="-2262.73" font-family="Helvetica,sans-Serif" font-style="italic" font-size="32.00" fill="#29235c">INTEGER</text>
<polygon fill="#e7e2dd" stroke="transparent" points="129.45,-2181.53 129.45,-2241.53 458.45,-2241.53 458.45,-2181.53 129.45,-2181.53"/>
<polygon fill="none" stroke="#29235c" points="129.45,-2181.53 129.45,-2241.53 458.45,-2241.53 458.45,-2181.53 129.45,-2181.53"/>
<text text-anchor="start" x="140.26" y="-2201.73" font-family="Helvetica,sans-Serif" font-size="32.00" fill="#29235c">player_id &#160;&#160;&#160;</text>
<text text-anchor="start" x="305.34" y="-2202.73" font-family="Helvetica,sans-Serif" font-style="italic" font-size="32.00" fill="#29235c">INTEGER</text>
<polygon fill="#e7e2dd" stroke="transparent" points="129.45,-2121.53 129.45,-2181.53 458.45,-2181.53 458.45,-2121.53 129.45,-2121.53"/>
<polygon fill="none" stroke="#29235c" points="129.45,-2121.53 129.45,-2181.53 458.45,-2181.53 458.45,-2121.53 129.45,-2121.53"/>
<text text-anchor="start" x="140.45" y="-2141.73" font-family="Helvetica,sans-Serif" font-size="32.00" fill="#29235c">location &#160;&#160;&#160;</text>
<text text-anchor="start" x="291.02" y="-2142.73" font-family="Helvetica,sans-Serif" font-style="italic" font-size="32.00" fill="#29235c">VARCHAR</text>
<polygon fill="none" stroke="#29235c" stroke-width="2" points="127.95,-2120.53 127.95,-2362.53 458.95,-2362.53 458.95,-2120.53 127.95,-2120.53"/>
</g>
<!-- Settlement&#45;&gt;Player -->
<!-- Settlement&#45;&gt;Player -->
<g id="edge16" class="edge">
<title>Settlement:e&#45;&gt;Player:w</title>
<path fill="none" stroke="#29235c" stroke-width="3" d="M459.45,-2211.53C714.99,-2211.53 480.1,-1710.52 722.23,-1696.82"/>
<polygon fill="#29235c" stroke="#29235c" stroke-width="3" points="722.68,-1700.31 732.58,-1696.53 722.49,-1693.31 722.68,-1700.31"/>
<text text-anchor="middle" x="738.8" y="-1706.13" font-family="Helvetica,sans-Serif" font-size="32.00" fill="#29235c">*</text>
<text text-anchor="middle" x="468.34" y="-2221.13" font-family="Helvetica,sans-Serif" font-size="32.00" fill="#29235c">1</text>
</g>
<!-- Tile -->
<g id="Tile" class="node">
<title>Tile</title>
<ellipse fill="none" stroke="black" stroke-width="0" cx="293.45" cy="-172.53" rx="261.76" ry="172.57"/>
<polygon fill="#1d71b8" stroke="transparent" points="110.45,-232.53 110.45,-292.53 476.45,-292.53 476.45,-232.53 110.45,-232.53"/>
<polygon fill="none" stroke="#29235c" points="110.45,-232.53 110.45,-292.53 476.45,-292.53 476.45,-232.53 110.45,-232.53"/>
<text text-anchor="start" x="205.43" y="-253.73" font-family="Helvetica,sans-Serif" font-weight="bold" font-size="32.00" fill="#ffffff"> &#160;&#160;&#160;&#160;&#160;&#160;Tile &#160;&#160;&#160;&#160;&#160;&#160;</text>
<polygon fill="#e7e2dd" stroke="transparent" points="110.45,-172.53 110.45,-232.53 476.45,-232.53 476.45,-172.53 110.45,-172.53"/>
<polygon fill="none" stroke="#29235c" points="110.45,-172.53 110.45,-232.53 476.45,-232.53 476.45,-172.53 110.45,-172.53"/>
<text text-anchor="start" x="121.45" y="-193.73" font-family="Helvetica,sans-Serif" font-weight="bold" font-size="32.00" fill="#29235c">id</text>
<text text-anchor="start" x="146.34" y="-193.73" font-family="Helvetica,sans-Serif" font-size="32.00" fill="#29235c"> &#160;&#160;&#160;</text>
<text text-anchor="start" x="323.23" y="-193.73" font-family="Helvetica,sans-Serif" font-style="italic" font-size="32.00" fill="#29235c">INTEGER</text>
<polygon fill="#e7e2dd" stroke="transparent" points="110.45,-112.53 110.45,-172.53 476.45,-172.53 476.45,-112.53 110.45,-112.53"/>
<polygon fill="none" stroke="#29235c" points="110.45,-112.53 110.45,-172.53 476.45,-172.53 476.45,-112.53 110.45,-112.53"/>
<text text-anchor="start" x="121.09" y="-132.73" font-family="Helvetica,sans-Serif" font-size="32.00" fill="#29235c">resource_id &#160;&#160;&#160;</text>
<text text-anchor="start" x="323.34" y="-133.73" font-family="Helvetica,sans-Serif" font-style="italic" font-size="32.00" fill="#29235c">INTEGER</text>
<polygon fill="#e7e2dd" stroke="transparent" points="110.45,-52.53 110.45,-112.53 476.45,-112.53 476.45,-52.53 110.45,-52.53"/>
<polygon fill="none" stroke="#29235c" points="110.45,-52.53 110.45,-112.53 476.45,-112.53 476.45,-52.53 110.45,-52.53"/>
<text text-anchor="start" x="121.45" y="-72.73" font-family="Helvetica,sans-Serif" font-size="32.00" fill="#29235c">number &#160;&#160;&#160;</text>
<text text-anchor="start" x="323.23" y="-73.73" font-family="Helvetica,sans-Serif" font-style="italic" font-size="32.00" fill="#29235c">INTEGER</text>
<polygon fill="none" stroke="#29235c" stroke-width="2" points="109.45,-51.53 109.45,-293.53 477.45,-293.53 477.45,-51.53 109.45,-51.53"/>
</g>
<!-- Tile&#45;&gt;Resource -->
<!-- Tile&#45;&gt;Resource -->
<g id="edge18" class="edge">
<title>Tile:e&#45;&gt;Resource:w</title>
<path fill="none" stroke="#29235c" stroke-width="3" d="M477.45,-142.53C721.45,-142.53 491.77,-623.61 722.35,-637.24"/>
<polygon fill="#29235c" stroke="#29235c" stroke-width="3" points="722.48,-640.74 732.58,-637.53 722.68,-633.75 722.48,-640.74"/>
<text text-anchor="middle" x="738.8" y="-647.13" font-family="Helvetica,sans-Serif" font-size="32.00" fill="#29235c">*</text>
<text text-anchor="middle" x="486.34" y="-113.73" font-family="Helvetica,sans-Serif" font-size="32.00" fill="#29235c">1</text>
</g>
<!-- Trade -->
<g id="Trade" class="node">
<title>Trade</title>
<ellipse fill="none" stroke="black" stroke-width="0" cx="293.45" cy="-1067.53" rx="293.4" ry="257.27"/>
<polygon fill="#1d71b8" stroke="transparent" points="88.45,-1187.53 88.45,-1247.53 499.45,-1247.53 499.45,-1187.53 88.45,-1187.53"/>
<polygon fill="none" stroke="#29235c" points="88.45,-1187.53 88.45,-1247.53 499.45,-1247.53 499.45,-1187.53 88.45,-1187.53"/>
<text text-anchor="start" x="189.92" y="-1208.73" font-family="Helvetica,sans-Serif" font-weight="bold" font-size="32.00" fill="#ffffff"> &#160;&#160;&#160;&#160;&#160;&#160;Trade &#160;&#160;&#160;&#160;&#160;&#160;</text>
<polygon fill="#e7e2dd" stroke="transparent" points="88.45,-1127.53 88.45,-1187.53 499.45,-1187.53 499.45,-1127.53 88.45,-1127.53"/>
<polygon fill="none" stroke="#29235c" points="88.45,-1127.53 88.45,-1187.53 499.45,-1187.53 499.45,-1127.53 88.45,-1127.53"/>
<text text-anchor="start" x="99.45" y="-1148.73" font-family="Helvetica,sans-Serif" font-weight="bold" font-size="32.00" fill="#29235c">id</text>
<text text-anchor="start" x="124.34" y="-1148.73" font-family="Helvetica,sans-Serif" font-size="32.00" fill="#29235c"> &#160;&#160;&#160;</text>
<text text-anchor="start" x="346.23" y="-1148.73" font-family="Helvetica,sans-Serif" font-style="italic" font-size="32.00" fill="#29235c">INTEGER</text>
<polygon fill="#e7e2dd" stroke="transparent" points="88.45,-1067.53 88.45,-1127.53 499.45,-1127.53 499.45,-1067.53 88.45,-1067.53"/>
<polygon fill="none" stroke="#29235c" points="88.45,-1067.53 88.45,-1127.53 499.45,-1127.53 499.45,-1067.53 88.45,-1067.53"/>
<text text-anchor="start" x="99.38" y="-1087.73" font-family="Helvetica,sans-Serif" font-size="32.00" fill="#29235c">from_player_id &#160;&#160;&#160;</text>
<text text-anchor="start" x="346.34" y="-1088.73" font-family="Helvetica,sans-Serif" font-style="italic" font-size="32.00" fill="#29235c">INTEGER</text>
<polygon fill="#e7e2dd" stroke="transparent" points="88.45,-1007.53 88.45,-1067.53 499.45,-1067.53 499.45,-1007.53 88.45,-1007.53"/>
<polygon fill="none" stroke="#29235c" points="88.45,-1007.53 88.45,-1067.53 499.45,-1067.53 499.45,-1007.53 88.45,-1007.53"/>
<text text-anchor="start" x="99.45" y="-1027.73" font-family="Helvetica,sans-Serif" font-size="32.00" fill="#29235c">to_player_id &#160;&#160;&#160;</text>
<text text-anchor="start" x="346.23" y="-1028.73" font-family="Helvetica,sans-Serif" font-style="italic" font-size="32.00" fill="#29235c">INTEGER</text>
<polygon fill="#e7e2dd" stroke="transparent" points="88.45,-947.53 88.45,-1007.53 499.45,-1007.53 499.45,-947.53 88.45,-947.53"/>
<polygon fill="none" stroke="#29235c" points="88.45,-947.53 88.45,-1007.53 499.45,-1007.53 499.45,-947.53 88.45,-947.53"/>
<text text-anchor="start" x="99.45" y="-967.73" font-family="Helvetica,sans-Serif" font-size="32.00" fill="#29235c">resource_id &#160;&#160;&#160;</text>
<text text-anchor="start" x="346.23" y="-968.73" font-family="Helvetica,sans-Serif" font-style="italic" font-size="32.00" fill="#29235c">INTEGER</text>
<polygon fill="#e7e2dd" stroke="transparent" points="88.45,-887.53 88.45,-947.53 499.45,-947.53 499.45,-887.53 88.45,-887.53"/>
<polygon fill="none" stroke="#29235c" points="88.45,-887.53 88.45,-947.53 499.45,-947.53 499.45,-887.53 88.45,-887.53"/>
<text text-anchor="start" x="99.45" y="-907.73" font-family="Helvetica,sans-Serif" font-size="32.00" fill="#29235c">amount &#160;&#160;&#160;</text>
<text text-anchor="start" x="346.23" y="-908.73" font-family="Helvetica,sans-Serif" font-style="italic" font-size="32.00" fill="#29235c">INTEGER</text>
<polygon fill="none" stroke="#29235c" stroke-width="2" points="86.95,-886.53 86.95,-1248.53 499.95,-1248.53 499.95,-886.53 86.95,-886.53"/>
</g>
<!-- Trade&#45;&gt;Player -->
<!-- Trade&#45;&gt;Player -->
<g id="edge20" class="edge">
<title>Trade:e&#45;&gt;Player:w</title>
<path fill="none" stroke="#29235c" stroke-width="3" d="M500.45,-1097.53C782.48,-1097.53 455.25,-1682 722.4,-1696.27"/>
<polygon fill="#29235c" stroke="#29235c" stroke-width="3" points="722.49,-1699.77 732.58,-1696.53 722.67,-1692.77 722.49,-1699.77"/>
<text text-anchor="middle" x="726.36" y="-1667.73" font-family="Helvetica,sans-Serif" font-size="32.00" fill="#29235c">*</text>
<text text-anchor="middle" x="509.34" y="-1068.73" font-family="Helvetica,sans-Serif" font-size="32.00" fill="#29235c">1</text>
</g>
<!-- Trade&#45;&gt;Player -->
<!-- Trade&#45;&gt;Player -->
<g id="edge24" class="edge">
<title>Trade:e&#45;&gt;Player:w</title>
<path fill="none" stroke="#29235c" stroke-width="3" d="M500.45,-1037.53C807.49,-1037.53 430.7,-1681.82 722.38,-1696.29"/>
<polygon fill="#29235c" stroke="#29235c" stroke-width="3" points="722.5,-1699.79 732.58,-1696.53 722.67,-1692.79 722.5,-1699.79"/>
<text text-anchor="middle" x="726.36" y="-1706.13" font-family="Helvetica,sans-Serif" font-size="32.00" fill="#29235c">*</text>
<text text-anchor="middle" x="509.34" y="-1008.73" font-family="Helvetica,sans-Serif" font-size="32.00" fill="#29235c">1</text>
</g>
<!-- Trade&#45;&gt;Resource -->
<!-- Trade&#45;&gt;Resource -->
<g id="edge22" class="edge">
<title>Trade:e&#45;&gt;Resource:w</title>
<path fill="none" stroke="#29235c" stroke-width="3" d="M500.45,-977.53C679.94,-977.53 554.59,-650.36 722.47,-637.9"/>
<polygon fill="#29235c" stroke="#29235c" stroke-width="3" points="722.71,-641.39 732.58,-637.53 722.46,-634.4 722.71,-641.39"/>
<text text-anchor="middle" x="726.36" y="-608.73" font-family="Helvetica,sans-Serif" font-size="32.00" fill="#29235c">*</text>
<text text-anchor="middle" x="509.34" y="-948.73" font-family="Helvetica,sans-Serif" font-size="32.00" fill="#29235c">1</text>
</g>
</g>
</svg>
